<svg width="190" height="252" viewBox="0 0 190 252" fill="none" xmlns="http://www.w3.org/2000/svg">
<rect x="58" y="31" width="76" height="189" fill="white"/>
<rect x="58" y="31" width="76" height="189" fill="white"/>
<rect x="36" y="65" width="122" height="81" fill="white"/>
<rect x="36" y="65" width="122" height="81" fill="white"/>
<path d="M156.886 0H33.1143L0 90.9166L40.28 252H149.72L190 90.9166L156.886 0ZM139.406 238.676H52.6571H50.5943L13.8429 91.681L42.3429 13.3235H147.657L176.157 91.681L139.406 238.676Z" fill="#171717"/>
<path d="M143.966 18.6748H46.0342L19.3799 91.9541L54.7199 233.38H135.28L170.62 91.9541L143.966 18.6748ZM131.534 70.8222C133.814 78.6306 129.851 81.6339 129.851 81.6339C136.366 81.6339 144.128 75.5728 144.128 75.5728C144.128 75.5728 143.694 87.0943 133.977 87.0943C124.206 87.0943 111.611 87.0943 111.611 87.0943C118.071 85.6746 130.72 73.7162 131.534 70.8222ZM60.1485 81.6885C60.1485 81.6885 56.1856 78.6306 58.4656 70.8768C59.2799 73.7708 71.8742 85.7292 78.3885 87.1489C78.3885 87.1489 65.7942 87.1489 56.0227 87.1489C46.2513 87.1489 45.8713 75.6274 45.8713 75.6274C45.8713 75.6274 53.6342 81.6885 60.1485 81.6885ZM67.3685 174.025C73.8285 175.335 72.5256 170.093 67.3685 166.216C62.2113 162.285 58.3027 157.097 59.6056 148.634C59.6056 148.634 63.5142 156.442 68.0199 154.476C72.5799 152.511 64.1113 140.771 62.2113 138.15C72.5799 141.426 74.5342 147.269 74.5342 147.269V181.833C74.4799 181.888 61.5599 172.714 67.3685 174.025ZM122.631 166.216C117.474 170.148 116.171 175.335 122.631 174.025C128.44 172.714 115.52 181.833 115.52 181.833V147.269C115.52 147.269 117.474 141.426 127.843 138.15C125.888 140.771 117.474 152.511 122.034 154.476C126.594 156.442 130.448 148.634 130.448 148.634C131.697 157.097 127.788 162.285 122.631 166.216ZM151.403 133.181C148.417 129.304 137.397 124.335 129.634 124.335H107.106V188.222C107.106 196.03 112.046 207.115 115.9 210.118C101.894 212.193 94.9999 202.474 94.9999 202.474C94.9999 202.474 88.1599 212.193 74.0999 210.118C77.9542 207.115 82.8942 196.03 82.8942 188.222V124.335C73.3399 124.335 60.3656 124.335 60.3656 124.335C52.6027 124.335 41.5827 129.304 38.597 133.181C36.5342 119.093 46.197 112.158 46.197 112.158C46.197 112.158 36.5342 105.278 38.597 91.135C41.5827 95.012 52.6027 99.981 60.3656 99.981H82.8942V76.5556C82.8942 68.7472 77.9542 57.6625 74.0999 54.6592C88.1056 52.5842 94.9999 62.3038 94.9999 62.3038C94.9999 62.3038 101.84 52.5842 115.9 54.6592C112.046 57.6625 107.106 68.7472 107.106 76.5556V99.981C116.823 99.981 129.634 99.981 129.634 99.981C137.397 99.981 148.417 95.012 151.403 91.135C153.466 105.223 143.803 112.158 143.803 112.158C143.803 112.158 153.466 119.093 151.403 133.181Z" fill="#171717"/>
</svg>
