<?xml version="1.0" encoding="utf-8"?>
<!-- Generator: Adobe Illustrator 24.3.0, SVG Export Plug-In . SVG Version: 6.00 Build 0)  -->
<svg version="1.1" id="Capa_1" xmlns="http://www.w3.org/2000/svg" xmlns:xlink="http://www.w3.org/1999/xlink" x="0px" y="0px"
	 viewBox="0 0 500 500" style="enable-background:new 0 0 500 500;" xml:space="preserve">
<style type="text/css">
	.st0{fill:#FFFFFF;stroke:#AA7D50;stroke-width:2.4565;stroke-miterlimit:10;}
	.st1{fill:#AA7D50;}
</style>
<polygon class="st0" points="40.1,129.1 40.1,371.5 250,492.7 459.9,371.5 459.9,129.1 250,7.9 "/>
<g>
	<path d="M176.8,350.7v11.6c1.8-1,3.5-1.9,5.2-2.9c1.8-1,3.3-1.9,5-2.9c1.8,1,3.7,2,5.4,3c1.8,1,3.5,2,5.4,3.1l3.5,2v16.6
		c-0.5,0.4-1.2,0.7-1.8,1.1c-0.5,0.3-1.2,0.7-1.9,1.1c-1.8,1-3.5,2-5.4,3.1c-1.8,1-3.5,2-5.4,3.3c-2.5-1.4-4.8-2.9-7.2-4.2
		s-4.8-2.9-7.2-4.2v-17.2c0-2.7,0-5.4,0-8.2c0-2.7,0-5.3,0-7.8v-0.1C174.1,348.9,175.5,349.7,176.8,350.7z M187,361.4
		c-1.8,1-3.4,1.9-5.2,2.9c-1.8,1-3.4,2-5.2,3v11.6c1.8,1,3.4,2,5.2,2.9c1.8,1,3.4,1.9,5,2.9c1.8-1,3.4-1.9,5.2-2.9s3.4-2,5.2-3
		v-11.6c-1.8-1-3.4-2-5.2-2.9C190.4,363.3,188.7,362.4,187,361.4z"/>
	<path d="M219.7,356.4c2.5,1.4,4.8,2.9,7.2,4.2c2.5,1.4,4.8,2.9,7.2,4.2c-0.1,5.4-0.1,10.9,0,16.5c-0.1,0-0.1,0-0.3-0.1
		c-0.1-0.1-0.1-0.1-0.3-0.1c-0.5-0.4-1.2-0.7-1.8-1.1c-0.5-0.3-1.4-0.7-1.9-1.1v-10.2c0-0.1,0-0.4,0-0.7s0-0.5,0-0.7
		s-0.1-0.1-0.1-0.1c-0.1-0.1-0.1-0.1-0.4-0.1c-0.1-0.1-0.3-0.1-0.4-0.1c-0.1-0.1-0.1-0.1-0.3-0.1c-1.5-1-3-1.8-4.5-2.6
		s-3-1.8-4.5-2.6c-1.6,1-3.3,1.9-5,2.9s-3.4,2-5.2,3V379c1.5,1,3.1,1.9,4.8,2.9c1.6,1,3.3,1.8,4.8,2.9c0.1,0.1,0.1,0.1,0.3,0.1
		c0.1,0.1,0.1,0.1,0.3,0.1c0.1,0,0.1,0,0.3-0.1c0.1-0.1,0.3-0.1,0.4-0.1c1-0.5,1.8-1,2.6-1.5c0.8-0.5,1.8-1,2.5-1.4
		c0.7,0.4,1.4,0.8,2.2,1.2c0.7,0.4,1.4,1,2,1.4c-1.6,1-3.3,1.9-5,2.9c-1.8,1-3.4,1.9-5,2.9c-2.5-1.4-4.8-2.9-7.2-4.2
		s-4.8-2.9-7.1-4.2v-16.6c2.5-1.4,4.8-2.7,7.1-4.1C214.8,359.1,217.3,357.8,219.7,356.4z M234.2,381.5c-0.1,1.8-0.1,3.3,0,4.9
		c-1.5-0.8-2.9-1.6-4.4-2.5c-1.4-0.8-2.9-1.8-4.2-2.5c0.7-0.4,1.4-0.8,2-1.2c0.7-0.4,1.4-0.8,2-1.2c0.7,0.4,1.4,0.8,2,1.2
		C232.7,380.6,233.3,381,234.2,381.5z"/>
	<path d="M251,356.8c1.8,1,3.5,2,5.4,3.1c1.8,1,3.5,2,5.4,3.3c0.5,0.4,1.2,0.7,1.8,1s1.2,0.7,1.8,1.1c-0.7,0.4-1.4,0.7-2,1.1
		c-0.7,0.4-1.4,0.8-2,1.2c-1.8-1-3.4-1.9-5.2-2.9c-1.8-1-3.4-1.9-5-2.9c-1.8,1-3.4,1.9-5.2,2.9c-1.8,1-3.4,1.9-5.2,2.9
		c0.1,0.1,0.5,0.4,0.8,0.5c0.3,0.1,0.5,0.3,0.8,0.4c1.8,1.1,3.5,2,5.4,3.1c1.9,1.1,3.5,2,5.4,3.1c1.5,1,3.1,1.8,4.6,2.6
		c1.5,0.8,3.1,1.8,4.8,2.7c0.5,0.3,1,0.5,1.5,1c0.5,0.3,1,0.5,1.5,1c-2.5,1.4-4.8,2.7-7.1,4.1c-2.5,1.4-4.8,2.9-7.1,4.1
		c-2.5-1.4-4.8-2.7-7.2-4.1s-4.8-2.9-7.2-4.1c0.7-0.5,1.4-1,2-1.4c0.7-0.4,1.5-0.8,2.2-1.2c1.6,1,3.3,2,5,2.9c1.8,1,3.4,1.9,5.2,2.9
		c1-0.5,1.9-1.2,2.9-1.8c1-0.5,1.9-1.1,2.9-1.8c-0.4-0.3-0.8-0.5-1.2-0.8c-0.4-0.1-0.8-0.5-1.2-0.8c-3-1.8-5.9-3.4-8.9-5.2
		c-3-1.8-5.9-3.4-8.9-5.2c0-0.8,0-1.8,0-2.5s0-1.6,0-2.5c2.5-1.4,4.8-2.9,7.2-4.2C246.3,359.7,248.6,358.3,251,356.8z"/>
	<path d="M296.9,364.7c-2.5,1.4-4.8,2.9-7.1,4.2c-2.5,1.4-4.8,2.9-7.2,4.2c-0.7-0.4-1.4-0.8-2-1.2s-1.4-0.8-2-1.2c1.6-1,3.3-2,5-2.9
		c1.8-1,3.4-1.9,5-2.9c-1-0.5-1.9-1.2-2.9-1.8c-1-0.5-1.9-1.1-2.9-1.6c-1.8,1-3.4,1.9-5.2,2.9s-3.4,2-5.2,3V379c1.8,1,3.4,2,5.2,2.9
		c1.8,1,3.4,1.9,5,2.9c1.8-1,3.4-2,5.2-2.9c1.6-1,3.3-1.9,5.2-2.9l4.2,2.5c-2.5,1.4-4.8,2.9-7.1,4.2c-2.5,1.4-4.8,2.7-7.2,4.1
		c-2.5-1.4-4.8-2.7-7.1-4.1c-2.5-1.4-4.8-2.9-7.2-4.1v-16.5c2-1.2,4.1-2.5,6.3-3.5c2.2-1.1,4.2-2.5,6.3-3.5c0.3-0.1,0.5-0.4,1-0.5
		c0.3-0.1,0.5-0.4,1-0.5c0.1-0.1,0.4,0,0.5,0.1c0.1,0.1,0.4,0.1,0.7,0.4c2.2,1.4,4.4,2.6,6.7,3.9
		C292.6,362.1,294.8,363.3,296.9,364.7z"/>
	<path d="M325,351.2c1.4-0.8,2.7-1.6,4.2-2.5v0.1c-0.1,2.5-0.1,5.2,0,7.8c0,2.7,0,5.4,0,8.2V382c-2.5,1.4-4.8,2.9-7.2,4.2
		s-4.8,2.9-7.2,4.2c-1.8-1.1-3.5-2-5.4-3.3c-1.8-1-3.5-2-5.4-3.1c-0.7-0.4-1.4-0.7-1.9-1.1c-0.5-0.3-1.2-0.7-1.8-1.1v-16.6l3.5-2
		c1.8-1.1,3.7-2,5.4-3.1c1.8-1,3.5-2,5.4-3c1.6,1,3.3,1.9,5,2.9s3.4,1.9,5.2,2.9L325,351.2L325,351.2z M314.8,361.8
		c-1.8,1-3.4,2-5.2,2.9c-1.6,1-3.3,1.9-5.2,2.9v11.6c1.8,1,3.4,2,5.2,3c1.8,1,3.4,2,5.2,2.9c1.6-1,3.3-2,5-2.9
		c1.8-1,3.4-1.9,5.2-2.9v-11.4c-1.8-1-3.4-2-5.2-3C318.2,363.7,316.6,362.8,314.8,361.8z"/>
</g>
<g>
	<g>
		<path class="st1" d="M195.9,125.3V187c9.5-5.1,18.6-10.2,27.2-15.2c8.8-5.2,17.6-10.3,26.3-15.2c9.8,5.3,19.4,10.6,29,15.9
			c9.6,5.3,19.2,10.8,29,16.6l18.7,11.2v87.9c-3.2,2-6.4,3.9-9.5,5.6c-3.2,1.7-6.4,3.6-9.9,5.6c-9.5,5.3-18.8,10.7-28.5,16.2
			c-9.5,5.5-19,11.1-28.5,16.8c-12.8-7.5-25.6-14.8-38.3-22.2c-12.7-7.3-25.5-14.7-38.3-22.2v-90.4c0-14.4,0.1-28.9,0.1-43.3
			c0.1-14.4,0.1-28.3-0.1-41.4v-0.5C181.5,116.6,189.1,120.8,195.9,125.3z M250.1,182c-9.1,5.1-18.2,10.2-27.1,15.4
			c-8.9,5.3-18,10.6-27.1,15.8v61.7c9.1,5.3,18.2,10.6,27.1,15.6c8.9,5.1,17.8,10.3,26.6,15.6c9.1-5.1,18.2-10.2,27.1-15.4
			c8.9-5.2,18-10.6,27.1-15.8v-61.7c-9.1-5.3-18-10.4-26.8-15.6C268.1,192.4,259.2,187.2,250.1,182z"/>
	</g>
</g>
</svg>
